HIERARCHY
ROOT root
{
	OFFSET 0.000000 0.000000 0.000000
	CHANNELS 6 Xposition Yposition Zposition Zrotation Yrotation Xrotation
	JOINT lhip
	{
		OFFSET 0.058581 -0.082280 -0.017664
		CHANNELS 3 Zrotation Yrotation Xrotation
		JOINT lknee
		{
			OFFSET 0.043451 -0.386469 0.008037
			CHANNELS 3 Zrotation Yrotation Xrotation
			JOINT lankle
			{
				OFFSET -0.014790 -0.426874 -0.037428
				CHANNELS 3 Zrotation Yrotation Xrotation
				JOINT ltoe
				{
					OFFSET 0.041054 -0.060286 0.122042
					CHANNELS 3 Zrotation Yrotation Xrotation
					End Site
					{
						OFFSET 0.000000 0.000000 0.000000
					}
				}
			}
		}
	}
	JOINT rhip
	{
		OFFSET -0.060310 -0.090513 -0.013543
		CHANNELS 3 Zrotation Yrotation Xrotation
		JOINT rknee
		{
			OFFSET -0.043257 -0.383688 -0.004843
			CHANNELS 3 Zrotation Yrotation Xrotation
			JOINT rankle
			{
				OFFSET 0.019056 -0.420046 -0.034562
				CHANNELS 3 Zrotation Yrotation Xrotation
				JOINT rtoe
				{
					OFFSET -0.034840 -0.062106 0.130323
					CHANNELS 3 Zrotation Yrotation Xrotation
					End Site
					{
						OFFSET 0.000000 0.000000 0.000000
					}
				}
			}
		}
	}
	JOINT lowerback
	{
		OFFSET 0.004439 0.124404 -0.038385
		CHANNELS 3 Zrotation Yrotation Xrotation
		JOINT upperback
		{
			OFFSET 0.004488 0.137956 0.026820
			CHANNELS 3 Zrotation Yrotation Xrotation
			JOINT chest
			{
				OFFSET -0.002265 0.056032 0.002855
				CHANNELS 3 Zrotation Yrotation Xrotation
				JOINT lowerneck
				{
					OFFSET -0.013390 0.211636 -0.033468
					CHANNELS 3 Zrotation Yrotation Xrotation
					JOINT upperneck
					{
						OFFSET 0.010113 0.088937 0.050410
						CHANNELS 3 Zrotation Yrotation Xrotation
						End Site
						{
							OFFSET 0.000000 0.000000 0.000000
						}
					}
				}
				JOINT lclavicle
				{
					OFFSET 0.071702 0.114000 -0.018898
					CHANNELS 3 Zrotation Yrotation Xrotation
					JOINT lshoulder
					{
						OFFSET 0.122921 0.045205 -0.019046
						CHANNELS 3 Zrotation Yrotation Xrotation
						JOINT lelbow
						{
							OFFSET 0.255332 -0.015649 -0.022946
							CHANNELS 3 Zrotation Yrotation Xrotation
							JOINT lwrist
							{
								OFFSET 0.265709 0.012698 -0.007375
								CHANNELS 3 Zrotation Yrotation Xrotation
								End Site
								{
									OFFSET 0.000000 0.000000 0.000000
								}
							}
						}
					}
				}
				JOINT rclavicle
				{
					OFFSET -0.082954 0.112472 -0.023707
					CHANNELS 3 Zrotation Yrotation Xrotation
					JOINT rshoulder
					{
						OFFSET -0.113228 0.046853 -0.008472
						CHANNELS 3 Zrotation Yrotation Xrotation
						JOINT relbow
						{
							OFFSET -0.260127 -0.014369 -0.031269
							CHANNELS 3 Zrotation Yrotation Xrotation
							JOINT rwrist
							{
								OFFSET -0.269108 0.006794 -0.006027
								CHANNELS 3 Zrotation Yrotation Xrotation
								End Site
								{
									OFFSET 0.000000 0.000000 0.000000
								}
							}
						}
					}
				}
			}
		}
	}
}
MOTION
Frames: 13
Frame Time: 0.033333
1.693471 0.562752 0.886490 28.707232 -0.355933 91.822448 2.767819 -3.274779 -31.567339 -8.036786 2.299333 49.857819 8.509753 6.149038 -27.931821 0.000000 -0.000000 0.000000 -4.181481 1.647406 -35.090570 -0.559205 -5.279304 62.337656 4.082666 -3.892235 -27.863094 0.000000 -0.000000 0.000000 -1.730260 -0.274613 23.914335 3.280371 -0.027303 -13.428326 -1.592356 -1.525769 -1.474751 7.984328 -6.845411 -16.484257 -6.633038 -22.347358 19.115476 -22.841798 0.571256 -5.063528 -50.258899 -19.021913 7.538014 94.193804 -76.763322 -65.000292 -19.572118 -13.402396 -3.079067 23.599701 6.031459 -8.374747 56.409961 20.394446 17.911909 -107.201765 69.298148 -73.814878 30.314945 6.871496 9.404717 
1.693484 0.562746 0.886406 28.639419 -0.294576 91.794958 2.865050 -3.302410 -31.560814 -8.016664 2.385048 49.899010 8.456443 6.140002 -27.956256 0.000000 -0.000000 0.000000 -4.195239 1.722854 -35.067701 -0.682069 -5.454507 62.352309 4.068295 -3.646084 -27.842366 0.000000 -0.000000 0.000000 -1.729407 -0.236203 23.787622 3.366137 -0.012567 -13.306785 -1.643580 -1.438941 -1.466097 7.991727 -6.798908 -16.451719 -6.475495 -22.449861 18.754427 -22.868916 0.693445 -5.062545 -50.072645 -19.116047 7.721497 94.340103 -76.733434 -64.926023 -19.179944 -13.689856 -3.565952 23.665773 5.934677 -8.434251 56.324619 20.334562 18.010471 -107.148658 69.347268 -73.386406 30.084797 7.199845 8.898331 
1.693325 0.562485 0.885211 28.516237 -0.164522 91.698520 3.056225 -3.287916 -31.639798 -8.043846 2.473998 50.306383 8.430768 6.226804 -28.168541 0.000000 -0.000000 0.000000 -4.121615 1.877058 -35.100926 -0.765046 -5.628158 62.642793 4.017179 -3.469679 -27.961004 0.000000 -0.000000 0.000000 -1.729446 -0.198023 23.694107 3.483261 0.021695 -13.131595 -1.673390 -1.362451 -1.459480 8.035863 -6.725940 -16.427276 -6.324418 -22.548148 18.300584 -22.888478 0.777521 -5.044271 -49.730315 -19.118931 7.811843 95.606101 -76.673709 -65.886902 -18.742729 -13.900461 -3.923245 23.721915 5.912756 -8.466787 56.136484 20.249638 18.060080 -107.189907 69.432763 -73.076332 29.758170 7.486806 8.402438 
1.693323 0.562655 0.882745 28.496443 -0.062866 91.530377 3.146522 -3.362697 -31.859597 -8.030443 2.559316 51.127217 8.495791 6.374170 -28.588362 0.000000 -0.000000 0.000000 -4.124915 1.955151 -35.241636 -0.724059 -5.736052 63.275816 3.972301 -3.495957 -28.277549 0.000000 -0.000000 0.000000 -1.682456 -0.230310 23.776337 3.539439 0.062462 -13.118499 -1.705245 -1.357638 -1.405889 8.146565 -6.671066 -16.508627 -6.309240 -22.609297 18.215328 -22.859124 0.834015 -5.084523 -49.540706 -19.116983 7.793721 97.014047 -76.678619 -67.168354 -18.748572 -14.102819 -4.003747 23.703858 5.871668 -8.583350 56.160316 20.172527 18.101084 -107.384044 69.492770 -73.080206 29.856088 7.514190 8.300789 
1.693364 0.562773 0.880873 28.545131 -0.030486 91.363801 3.121016 -3.439919 -31.976190 -8.007319 2.529352 51.687343 8.528376 6.492834 -28.855128 0.000000 -0.000000 0.000000 -4.165708 1.995640 -35.287027 -0.688753 -5.812219 63.715216 3.955818 -3.578102 -28.521346 0.000000 -0.000000 0.000000 -1.644413 -0.281534 23.937053 3.553377 0.086658 -13.167334 -1.739144 -1.357647 -1.340779 8.200249 -6.645902 -16.629830 -6.319940 -22.701740 18.270817 -22.883340 0.821364 -5.127840 -49.358763 -19.188564 7.757654 97.489643 -76.726221 -67.660015 -18.883003 -14.277344 -3.983232 23.727574 5.863989 -8.685428 56.127264 20.127447 18.103121 -107.370157 69.499901 -73.046701 29.979258 7.464647 8.331605 
1.693345 0.563025 0.878443 28.610148 0.065396 91.162726 3.134823 -3.513161 -32.140871 -7.986662 2.460306 52.392440 8.569319 6.663468 -29.188456 0.000000 -0.000000 0.000000 -4.162455 2.053321 -35.348444 -0.648986 -5.926409 64.237410 3.939555 -3.645491 -28.813126 0.000000 -0.000000 0.000000 -1.521300 -0.361179 24.146468 3.578748 0.127773 -13.225607 -1.796118 -1.333619 -1.250706 8.261211 -6.628203 -16.780921 -6.338084 -22.835573 18.297831 -22.935724 0.766705 -5.251854 -49.033368 -19.254704 7.741905 97.951949 -76.916077 -68.116704 -19.052517 -14.294470 -3.650227 23.755380 5.892306 -8.804705 56.045271 20.056819 18.054882 -107.290855 69.504462 -72.982550 30.114402 7.409348 8.394049 
1.693638 0.563256 0.876558 28.668089 0.173393 90.987492 3.132222 -3.577591 -32.224326 -7.938825 2.384912 52.927620 8.620120 6.822691 -29.458824 0.000000 -0.000000 0.000000 -4.137149 2.058395 -35.346840 -0.617696 -6.005298 64.607239 3.925720 -3.667166 -29.019333 0.000000 -0.000000 0.000000 -1.323358 -0.423467 24.301125 3.606824 0.178704 -13.253571 -1.837047 -1.284596 -1.230164 8.239013 -6.683570 -16.788924 -6.347478 -22.960014 18.215917 -22.993320 0.655827 -5.306607 -48.738067 -19.252106 7.740971 98.066292 -77.139608 -68.205842 -19.301278 -14.274981 -3.306537 23.728432 5.940366 -8.841830 55.890118 19.912958 17.924556 -107.238145 69.520507 -72.951505 30.211300 7.375281 8.435900 
1.694257 0.563457 0.875633 28.730315 0.242622 90.889613 3.063951 -3.657487 -32.221371 -7.872889 2.287117 53.157505 8.669157 6.947996 -29.596419 0.000000 -0.000000 0.000000 -4.139164 2.045502 -35.308762 -0.589754 -6.032476 64.751556 3.929679 -3.700561 -29.113181 0.000000 -0.000000 0.000000 -1.131718 -0.455400 24.337876 3.642483 0.241688 -13.264080 -1.852751 -1.254020 -1.243088 8.165204 -6.812754 -16.760540 -6.365188 -23.057928 18.138827 -23.046924 0.575503 -5.280491 -48.557216 -19.237452 7.770989 97.875330 -77.367858 -68.035350 -19.551482 -14.264260 -3.083741 23.737625 5.957384 -8.814557 55.682592 19.773000 17.775690 -107.097923 69.551996 -72.863577 30.299036 7.328118 8.549227 
1.695007 0.563635 0.875867 28.769892 0.224947 90.843389 2.929046 -3.715322 -32.100391 -7.841906 2.198649 53.058495 8.692999 7.008766 -29.565164 0.000000 -0.000000 0.000000 -4.190043 2.044170 -35.188187 -0.589447 -5.987548 64.642659 3.939864 -3.760687 -29.089662 0.000000 -0.000000 0.000000 -1.071370 -0.431303 24.289293 3.685273 0.281624 -13.243720 -1.800214 -1.238002 -1.275814 8.071141 -6.886079 -16.691551 -6.335219 -23.082060 18.045590 -23.066575 0.515202 -5.205731 -48.472358 -19.140887 7.804748 97.767986 -77.549960 -67.981730 -19.712482 -14.296466 -3.032198 23.770804 5.959565 -8.733375 55.461438 19.630816 17.648951 -106.963396 69.585297 -72.774151 30.385209 7.266212 8.674312 
1.695777 0.563693 0.877581 28.762619 0.181280 90.873284 2.811719 -3.723238 -31.838586 -7.847995 2.114244 52.563820 8.650951 6.992564 -29.344392 0.000000 -0.000000 0.000000 -4.181708 2.078015 -34.976554 -0.662221 -5.857423 64.218340 3.973683 -3.820040 -28.893903 0.000000 -0.000000 0.000000 -1.090838 -0.334724 24.100093 3.744398 0.332286 -13.178276 -1.697719 -1.214926 -1.311381 7.998023 -6.927583 -16.632295 -6.252588 -23.101781 17.871157 -23.027508 0.538330 -5.100660 -48.464636 -19.010105 7.863000 97.680566 -77.716507 -67.914376 -19.686446 -14.355688 -3.075313 23.833682 5.868030 -8.659217 55.333561 19.416201 17.568949 -106.934450 69.625075 -72.682047 30.394747 7.233387 8.775352 
1.696445 0.563696 0.879712 28.689151 0.143379 90.962406 2.720199 -3.708595 -31.550678 -7.831511 2.037411 51.906570 8.619624 6.976840 -29.073451 0.000000 -0.000000 0.000000 -4.114209 2.115270 -34.801729 -0.751046 -5.656762 63.691669 4.048744 -3.843497 -28.607714 0.000000 -0.000000 0.000000 -1.108442 -0.266963 23.873433 3.755288 0.360176 -13.117297 -1.650470 -1.173903 -1.315987 7.993047 -6.911957 -16.607560 -6.125211 -23.067684 17.654825 -22.963992 0.646215 -5.098002 -48.505168 -18.916540 7.904876 97.573600 -77.850274 -67.871778 -19.495589 -14.293539 -3.071521 23.838532 5.752270 -8.606000 55.473560 19.278558 17.610008 -106.898606 69.617826 -72.676643 30.315328 7.202467 8.843849 
1.697234 0.563717 0.882136 28.596779 0.043240 91.051184 2.549894 -3.728138 -31.200876 -7.779166 1.980893 51.156734 8.582024 6.973103 -28.772377 0.000000 -0.000000 0.000000 -4.108687 2.168907 -34.594339 -0.852511 -5.443987 63.115112 4.089791 -3.873459 -28.319689 0.000000 -0.000000 0.000000 -1.172029 -0.215604 23.656171 3.725365 0.380406 -13.077430 -1.636828 -1.125100 -1.329947 7.984277 -6.935930 -16.539587 -5.978362 -23.091690 17.499495 -22.908589 0.771988 -5.083668 -48.436693 -18.854547 7.903039 97.214574 -77.858733 -67.694491 -19.400967 -14.465514 -3.330780 23.872324 5.649145 -8.558994 55.603303 19.134832 17.695723 -106.835035 69.589794 -72.633348 30.219557 7.237069 8.776134 
1.697817 0.563635 0.884485 28.460315 -0.040199 91.129943 2.425430 -3.675236 -30.853569 -7.744696 1.945705 50.433409 8.570668 6.955384 -28.500134 0.000000 -0.000000 0.000000 -4.015175 2.226080 -34.392957 -0.965139 -5.154760 62.551440 4.146225 -3.886797 -28.020060 0.000000 -0.000000 0.000000 -1.253694 -0.162782 23.468649 3.679673 0.383840 -13.054640 -1.634326 -1.057699 -1.352504 7.990381 -6.951976 -16.437204 -5.792112 -23.133897 17.339011 -22.817759 0.878865 -5.104495 -48.354922 -18.767519 7.867697 96.930597 -77.882856 -67.531779 -19.073278 -14.383798 -3.382525 23.880331 5.586504 -8.545565 55.838593 19.010134 17.799555 -106.808251 69.574055 -72.596504 30.066200 7.216987 8.793171 
